<?xml version="1.0" encoding="UTF-8" standalone="no"?>
<svg xmlns="http://www.w3.org/2000/svg" width="580" height="580" version="1.0">
 <metadata id="metadata7"/>
 <path d="M 226.70117 0 L 0 230.89062 L 0 295.95117 L 0.29882812 296.24414 L 16.412109 279.83398 L 275.34375 16.113281 L 291.16602 0 L 226.70117 0 z " id="path4551" shape-rendering="auto" mix-blend-mode="normal" isolation="auto" color-interpolation-filters="linearRGB" white-space="normal" fill="#69ff66" solid-opacity="1" image-rendering="auto" fill-opacity="0.5" solid-color="#000000" color="#000000" color-rendering="auto" vector-effect="none" shape-padding="0" color-interpolation="sRGB"/>
 <path d="M 580 231.19336 L 563.73633 247.45703 L 247.45703 563.73633 L 231.19336 580 L 296.24609 580 L 580 296.24609 L 580 231.19336 z " id="path4555" shape-rendering="auto" mix-blend-mode="normal" isolation="auto" color-interpolation-filters="linearRGB" white-space="normal" fill="#69ff66" solid-opacity="1" image-rendering="auto" fill-opacity="0.5" solid-color="#000000" color="#000000" color-rendering="auto" vector-effect="none" shape-padding="0" color-interpolation="sRGB"/>
 <path d="M 580 354.14062 L 563.73633 370.40234 L 370.40234 563.73633 L 354.14062 580 L 419.19336 580 L 580 419.19336 L 580 354.14062 z " id="path4559" shape-rendering="auto" mix-blend-mode="normal" isolation="auto" color-interpolation-filters="linearRGB" white-space="normal" fill="#69ff66" solid-opacity="1" image-rendering="auto" fill-opacity="0.5" solid-color="#000000" color="#000000" color-rendering="auto" vector-effect="none" shape-padding="0" color-interpolation="sRGB"/>
 <path d="M 354.13867 0 L 0 354.13867 L 0 419.19336 L 16.263672 402.92969 L 402.92969 16.263672 L 419.19336 0 L 354.13867 0 z " id="path4580" shape-rendering="auto" mix-blend-mode="normal" isolation="auto" color-interpolation-filters="linearRGB" white-space="normal" fill="#69ff66" solid-opacity="1" image-rendering="auto" fill-opacity="0.5" solid-color="#000000" color="#000000" color-rendering="auto" vector-effect="none" shape-padding="0" color-interpolation="sRGB"/>
</svg>
