<?xml version="1.0" encoding="UTF-8" standalone="no"?>
<svg xmlns:rdf="http://www.w3.org/1999/02/22-rdf-syntax-ns#" xmlns="http://www.w3.org/2000/svg" height="580" width="580" version="1.1" xmlns:cc="http://creativecommons.org/ns#" xmlns:dc="http://purl.org/dc/elements/1.1/">
 <title>gebuesch</title>
 <metadata>
  <rdf:RDF>
   <cc:Work rdf:about="">
    <dc:format>image/svg+xml</dc:format>
    <dc:type rdf:resource="http://purl.org/dc/dcmitype/StillImage"/>
    <dc:title>gebuesch</dc:title>
   </cc:Work>
  </rdf:RDF>
 </metadata>
 <path fill="#c0e898" d="m0 0h580v580h-580z"/>
 <path fill="#98cc60" d="m18.121-0.0058594c0 72.5 36.25 72.5 36.25 36.25 36.25 0 36.25-36.25-36.25-36.25zm271.88 0.0058594c0 54.375 36.25 36.25 108.75 36.25 0-18.125 0-36.25-18.13-36.25h-90.62zm-163.12 0.49414c0 53.881 0 90.131 90.62 90.131 0-36.25 0-90.625-90.62-90.131zm399.45 14.084c-5.81-0.117-12.09 0.998-18.83 3.547-20.43 50.407 27.3 90.625 72.5 90.625 0-46.729-18.14-93.457-53.67-94.172zm-55.08 21.672c-72.5 18.13-90.63 18.131-90.63 90.63h0.01c49.12-7.09 108.75-36.255 90.62-90.63zm-163.32 33.359c-6.19 0.13 0.19 6.861 0.19 39.141 8.22-1.15 31.85-4.14 36.26 0v-36.25c-22.1 0-32.21-2.991-36.45-2.891zm-235.71 2.272c-16.1 0.225-25.543 15.563-17.832 54.999 44.612 10.59 108.17 35.11 90.621-0.01-20.39-30.585-52.09-55.279-72.789-54.989zm199.66 36.869c-36.26 0-90.63 0-90.63 54.37 36.25 18.12 144.99-36.24 90.63-54.37zm173.45 32.55c-43.64-0.21-33.58 39.95-10.33 39.95 0 28.47 54.38 36.25 36.25-36.25-10.2-2.55-18.78-3.67-25.92-3.7zm98.22 0.81c-6.19 0.13 0.2 6.86 0.2 39.14 8.21-1.15 31.84-4.14 36.25 0v-36.25c-22.09 0-32.21-2.99-36.45-2.89zm-543.55 2.89v36.25c8.6544 8.16 27.838 13.46 49.723 13.55 20.186 0.08 35.12-16.96 22.777-31.68-9.578-10.26-41.733-18.12-72.5-18.12zm362.49 0c-72.49 0-90.61 0-54.37 90.62 54.38 0 36.25-54.37 54.37-90.62zm-163.11 36.74c-54.38-0.49-72.5 17.64-72.5 54.88 54.37-1 72.5-1 72.5-54.88zm361.65 32.86c-12.98-0.1-34.83 2.89-71.65 2.89 0 36.25 0.5 34.9 90.62 36.25 0-32.28 0-39-18.97-39.14zm-162.79 21.59c18.63 35.69 0.5 89.06 54.88 90.06 36.25-36.25-0.5-90.56-54.88-90.06zm-343.86 10.34c-15.842 0.41-36.25 0.75-36.25 7.22 0 54.38 54.385 72.49 90.635 72.49 48.42-16.14-18.135-79.21-54.385-79.71zm206.26 3.62c-57 0.41-94.97 44.95-79.39 76.1 72.5-36.25 126.87 0 108.75-72.5-10.2-2.55-20.03-3.66-29.36-3.6zm83.74 3.6c-6.2 0.13 0.19 6.86 0.19 39.14 8.22-1.15 31.85-4.14 36.25 0v-36.25c-22.09 0-32.2-2.99-36.44-2.89zm217.5 36.24c-72.49 0-54.37 0-54.37 54.38 54.37 0 54.62-0.5 54.37-54.38zm-199.38 18.13c-90.62 1.72-46.5 108.76 18.12 108.76 72.86-54.38-46.15-43.78-18.12-108.76zm-308.12 36.26c-36.252-0.01-54.375 18.12-54.373 72.5 54.375 0 54.373 0 54.373-72.5zm145 18.11v72.5c108.75-18.12 126.88-72.5 0-72.5zm235.62 18.13c-18.12 72.5 72.5 54.37 126.88 72.5 0-54.38-18.12-72.5-126.88-72.5zm-271.88 0c-54.37 0-54.87 0-54.87 72.5 54.38 0 54.87 0 54.87-72.5zm181.26 72.5c-72.5 0-90.63 36.26-90.63 72.5 90.63 0 108.75-36.24 90.63-72.5zm54.38 18.12c54.37 72.5 54.37 90.63 90.62 0h-90.62zm-380.64 0.01c0 108.75 36.25 36.25 72.5 72.5 36.255-54.37 18.135-72.5-72.5-72.5zm145 18.13c0 72.5 18.13 90.62 72.5 90.62-8.65-72.5-36.24-90.62-72.5-90.62zm386.84 17.29c-10.87-0.24-29.99 24.61-60.58 55.2h72.5c0-39.65-3.46-55.02-11.92-55.2zm-214.79 43.92c-26.67-0.16-48.94 2.22-45.17 29.41h90.62c-7-3.08-2.16-29.81-18.12-29.23-9.06 0.21-18.44-0.13-27.33-0.18z"/>
</svg>
