<?xml version="1.0" encoding="UTF-8" standalone="no"?>
<svg xmlns="http://www.w3.org/2000/svg" version="1.0" width="580" height="580">
 <metadata id="metadata1976"/>
 <path id="path4143" d="M 543.88672,290 C 543.88672,430.21776 430.21776,543.88672 290,543.88672 149.78224,543.88672 36.113281,430.21776 36.113281,290 36.113282,149.78224 149.78224,36.113282 290,36.113281 430.21776,36.113281 543.88672,149.78224 543.88672,290 Z" mix-blend-mode="normal" solid-color="#000000" opacity="0.8" color-interpolation-filters="linearRGB" filter-gaussianBlur-deviation="0" color="#000000" image-rendering="auto" color-rendering="auto" stroke-width="64" isolation="auto" color-interpolation="sRGB" solid-opacity="1" fill="none" stroke-linejoin="round" filter-blend-mode="normal" stroke="#ffffff" shape-rendering="auto"/>
 <path d="M 543.88672,290 C 543.88672,430.21776 430.21776,543.88672 290,543.88672 149.78224,543.88672 36.113281,430.21776 36.113281,290 36.113282,149.78224 149.78224,36.113282 290,36.113281 430.21776,36.113281 543.88672,149.78224 543.88672,290 Z" id="path3267-7" fill="#39ac39"/>
 <path d="m 176.14157,367.51895 c -12.49904,0.1953 -23.72864,-9.08133 -34.76295,-9.17898 -11.13196,-0.1953 -23.43569,6.83541 -31.0523,8.39779 -7.51895,1.36709 -12.206087,1.56238 -13.963764,0.3906 l 0,25.87691 c 1.757677,1.07414 6.542464,0.97649 13.963764,-0.39059 7.51896,-1.56238 19.92034,-8.59309 31.0523,-8.39779 11.03431,0.0977 22.26391,9.37428 34.76295,9.17898 12.40139,-0.48825 26.16986,-10.54607 38.8642,-10.74136 12.30374,-0.48825 23.33804,8.59309 35.73943,8.78838 12.59669,0.0977 25.38868,-8.20249 38.8642,-8.00719 13.28023,0.19529 26.8534,9.27663 40.03598,9.17898 13.37788,-0.29295 25.97457,-9.96017 39.93834,-10.05782 13.96377,-0.0976 29.29462,9.37428 42.96544,9.66722 13.47553,0 27.34165,-8.88603 37.10652,-9.17898 9.66723,-0.39059 14.94026,5.85893 20.50624,7.12836 5.76127,1.26943 10.05782,1.36708 13.47552,0.39059 l 0,-25.87691 c -3.32006,1.07414 -7.71425,0.87884 -13.47552,-0.3906 -5.76128,-1.36708 -11.13196,-7.51895 -20.50624,-7.12835 -9.76487,0.39059 -23.82629,9.17898 -37.10652,9.17898 -13.67082,-0.29295 -29.00167,-9.56958 -42.96544,-9.56958 -13.86612,0.0977 -26.36516,9.76488 -39.93834,10.05782 -13.57317,0.0976 -27.14635,-8.98368 -40.03598,-9.17898 -13.47552,-0.39059 -26.26751,8.0072 -38.8642,7.90955 -12.01078,-0.1953 -22.75215,-8.59309 -34.56765,-8.78839 -16.02853,-0.35278 -26.67597,9.86942 -40.03598,10.74136 z" id="path4151" fill="#ffffff"/>
 <path d="m 177.21571,410.4844 c -12.49904,0.19529 -23.72864,-9.08134 -34.76295,-9.17898 -11.13196,-0.1953 -23.4357,6.83541 -31.0523,8.39779 -7.51895,1.56238 -12.206092,1.46473 -13.963769,0.39059 l 0,25.87692 c 1.757677,1.07413 6.542469,1.07413 13.963769,-0.3906 7.51895,-1.56238 19.92034,-8.59309 31.0523,-8.39779 11.03431,0.0977 22.26391,9.37428 34.76295,9.17898 12.40139,-0.58589 26.16986,-10.35076 38.8642,-10.74136 12.30374,-0.39059 23.33804,8.49544 35.73943,8.78839 12.59669,0.0976 25.38868,-8.30015 38.8642,-7.90955 13.28023,0.1953 26.8534,9.27663 40.03598,9.17898 13.37788,-0.29295 25.97457,-9.96017 39.93834,-10.05782 13.96377,0 29.29462,9.27663 42.96544,9.56958 13.47553,0 27.34165,-8.88604 37.10652,-9.17898 9.66723,-0.3906 14.94026,5.85892 20.50624,7.12835 5.76127,1.26944 10.05782,1.36709 13.47552,0.3906 l 0,-25.87692 c -3.32006,0.87884 -7.71425,0.78119 -13.47552,-0.39059 -5.76128,-1.26943 -11.13196,-7.51895 -20.50624,-7.12836 -9.76487,0.3906 -23.82629,9.17898 -37.10652,9.17898 -13.67082,-0.29294 -29.00167,-9.56957 -42.96544,-9.56957 -13.86612,0.0976 -26.36516,9.76487 -39.93834,10.05782 -13.57317,0.0976 -27.14635,-8.98369 -40.03598,-9.17899 -13.47552,-0.39059 -26.26751,8.0072 -38.8642,7.90955 -12.01079,-0.1953 -22.75215,-8.59309 -34.56765,-8.78838 -16.02852,-0.35279 -26.67597,9.86941 -40.03598,10.74136 z" id="path4149" fill="#ffffff"/>
 <path d="m 302.95849,55.460534 c -29.44889,9e-5 -57.26949,7.048466 -81.89411,19.537939 13.16081,1.942606 38.02923,6.525112 70.18016,16.88368 24.34088,7.842291 39.7585,16.462467 49.2193,23.337597 2.34551,1.70449 4.34862,3.34382 6.03981,4.84814 L 386.07733,90.412958 C 391.42522,86.403991 390.71039,78.174993 384.7513,75.148251 359.4015,62.274754 331.39798,55.53102 302.98271,55.460534 l -0.0242,0 z M 194.29056,82.69029 c -8.72796,-0.09655 -14.25318,9.331713 -9.90333,16.899114 -0.0937,0.0808 -0.18396,0.16565 -0.27753,0.24669 l 0.76432,0.16301 -1.41413,6.616906 c 2e-5,0 -6.46531,30.06753 -5.54419,79.32799 0.45519,24.34271 4.05717,40.13704 7.37684,49.65983 0.54826,1.57271 1.06226,2.89446 1.55731,4.11024 l 65.79921,-48.16974 118.2849,148.22838 c 3.85451,4.97212 13.56014,2.79547 18.47758,-1.12853 4.91745,-3.924 5.67406,-11.11248 1.68133,-15.97429 l -117.85759,-147.69313 62.18438,-46.6003 c -0.87051,-0.68858 -1.82734,-1.42111 -2.91197,-2.2093 -8.15819,-5.92854 -22.23913,-13.93733 -45.41303,-21.40363 C 240.19945,89.654567 209.54645,87.159563 209.54645,87.159563 l -6.74465,-0.555074 0.0837,-1.022051 c -0.23568,0.156098 -0.47435,0.307587 -0.70926,0.46476 -2.08447,-2.112955 -4.91781,-3.319099 -7.88568,-3.356908 z m -25.97422,32.59554 c -29.42379,32.44278 -47.38431,75.52218 -47.38444,122.76079 l 0,0.0199 c 0.0232,10.90382 1.0216,21.78413 2.98025,32.50964 1.20544,6.59136 8.92099,9.6157 14.2845,5.59926 l 37.58683,-28.1681 c -1.06603,-2.22547 -2.18832,-4.84164 -3.271,-7.94735 -3.84973,-11.04326 -7.64984,-28.29403 -8.12795,-53.86258 -0.612,-32.72849 2.00198,-57.42648 3.93181,-70.91148 z" id="path4142" shape-rendering="auto" mix-blend-mode="normal" color-interpolation-filters="linearRGB" isolation="auto" white-space="normal" fill="#ffffff" solid-opacity="1" image-rendering="auto" solid-color="#000000" color="#000000" color-rendering="auto" color-interpolation="sRGB"/>
</svg>
