<?xml version="1.0" encoding="UTF-8" standalone="no"?>
<svg xmlns="http://www.w3.org/2000/svg" version="1.0" width="580" height="580">
 <metadata id="metadata10"/>
 <path id="path4143" d="m 543.8867,290.00002 c 0,140.2177 -113.6689,253.8867 -253.8867,253.8867 -140.2177,0 -253.886705,-113.669 -253.886705,-253.8867 C 36.113295,149.78222 149.7823,36.113278 290,36.113278 c 140.2178,0 253.8867,113.668942 253.8867,253.886742 z" mix-blend-mode="normal" solid-color="#000000" opacity="0.8" color-interpolation-filters="linearRGB" color="#000000" image-rendering="auto" color-rendering="auto" stroke-width="64" isolation="auto" color-interpolation="sRGB" solid-opacity="1" fill="none" stroke-linejoin="round" stroke="#ffffff" shape-rendering="auto"/>
 <path d="m 543.8867,290.00002 c 0,140.2177 -113.6689,253.8867 -253.8867,253.8867 -140.2177,0 -253.886705,-113.669 -253.886705,-253.8867 C 36.113295,149.78222 149.7823,36.113278 290,36.113278 c 140.2178,0 253.8867,113.668942 253.8867,253.886742 z" id="path3267-7" fill="#ac39ac" vector-effect="none"/>
 <path d="m 365.97843,138.76662 c -7.98367,0 -15.96737,0.88707 -22.17691,0.88707 l -1.77415,19.51568 h 31.93475 c 14.19323,2.66125 -7.98369,9.75786 -9.75783,16.85446 -1.77415,7.98369 1.77414,15.96738 3.5483,23.06399 l -145.48052,0.88707 -7.98369,-21.28983 c 8.87076,-2.66123 31.04766,-7.98367 34.59598,-10.64493 3.5483,-3.54829 0,-7.98367 -2.66124,-7.98367 h -75.40148 c 0.88707,15.96737 13.30615,19.51567 20.40275,21.28983 l 8.87077,20.40275 c -9.75784,17.74152 -18.62861,32.82181 -27.49937,49.67628 -73.627337,-21.28984 -108.490139,33.7089 -109.377216,74.51441 0,44.35381 35.749879,79.83687 80.103696,79.83687 40.80552,0 75.40149,-31.93474 79.83687,-71.85318 h 18.6286 c 2.66124,3.5483 6.20954,7.09661 10.64492,8.87077 l -7.98368,18.62859 h -15.08031 c -7.98369,0.88707 -5.32245,10.64492 0,11.532 l 31.93476,-0.88708 c 8.87076,-0.88708 6.20954,-10.64492 0,-10.64492 h -8.87077 l 7.09661,-16.85444 c 20.40275,1.77414 28.38644,-13.30615 25.72522,-23.95107 l 99.35256,-67.41779 c 0.88707,2.66122 1.77414,6.20952 2.66122,8.87076 -18.6286,14.19323 -30.16061,37.25719 -30.16061,62.09533 0,44.35382 35.48307,79.83688 79.83688,79.83688 44.35382,0 79.83689,-35.48306 79.83689,-79.83688 -2.66124,-50.56334 -42.57967,-92.25593 -109.99749,-73.62734 -8.87077,-21.28982 -19.51567,-54.11165 -20.40275,-66.53071 1.77416,-8.87076 14.19323,-9.75785 16.85446,-20.40278 -1.77415,-21.28982 -19.51569,-24.83812 -37.25722,-24.83812 z m -135.72268,78.06271 h 142.8193 c 1.77416,5.32247 3.5483,11.53199 5.32246,17.74152 -33.7089,23.95109 -66.53073,47.90215 -101.12671,70.07905 l 6.20953,-15.96737 c 7.09661,0 6.20954,0 14.19324,-0.88709 7.98367,-0.88706 4.43537,-10.64492 0,-10.64492 H 265.7388 c -8.87075,0.88709 -6.20953,11.53201 0,11.53201 h 8.87077 l -7.0966,15.96737 c 0,-0.88708 -0.88709,-0.88708 -1.77417,-0.88708 z m -20.40275,6.20954 35.48304,87.82056 c -0.88706,0.88707 -2.66122,2.66123 -3.5483,4.43539 h -19.51567 c -2.66123,-23.06399 -15.0803,-42.57967 -32.82184,-54.99874 z m 228.8657,43.46675 c 32.82182,0 54.11166,30.16059 54.99873,57.65996 0,31.04767 -25.72521,56.77288 -56.77289,56.77288 -52.33749,-2.66122 -71.85318,-52.33751 -42.57965,-94.91717 3.54828,13.30614 9.75782,27.49937 19.51567,37.25722 29.27352,25.72522 47.01505,4.43537 14.19321,-15.96738 -7.0966,-10.64492 -11.53198,-22.17691 -15.08029,-34.59598 8.87076,-4.43538 17.74153,-6.20953 25.72522,-6.20953 z m -297.17058,2.66122 c 6.20953,0 13.30614,0.88708 20.40276,2.66124 l -25.72522,47.90211 c -3.5483,6.20954 0.88708,13.30615 7.98368,13.30615 h 55.88582 c -3.54831,28.38645 -27.49937,49.67628 -56.77289,49.67628 -31.93476,0 -56.772893,-25.72522 -56.772893,-56.77289 -0.08871,-31.04767 20.402753,-56.77289 54.998743,-56.77289 z m 36.37013,11.532 c 10.64491,8.87076 18.6286,20.40275 21.28982,34.59598 h -39.91844 z" id="path4144" fill="#ffffff" stroke-width="0.89"/>
</svg>
