<?xml version="1.0" encoding="UTF-8" standalone="no"?>
<svg xmlns="http://www.w3.org/2000/svg" version="1.0" width="580" height="580">
 <metadata id="metadata1976"/>
 <path id="path4143" d="M 543.88672,290 C 543.88672,430.21776 430.21776,543.88672 290,543.88672 149.78224,543.88672 36.113281,430.21776 36.113281,290 36.113282,149.78224 149.78224,36.113282 290,36.113281 430.21776,36.113281 543.88672,149.78224 543.88672,290 Z" mix-blend-mode="normal" solid-color="#000000" opacity="0.8" color-interpolation-filters="linearRGB" filter-gaussianBlur-deviation="0" color="#000000" image-rendering="auto" color-rendering="auto" stroke-width="64" isolation="auto" color-interpolation="sRGB" solid-opacity="1" fill="none" stroke-linejoin="round" filter-blend-mode="normal" stroke="#ffffff" shape-rendering="auto"/>
 <path d="M 543.88672,290 C 543.88672,430.21776 430.21776,543.88672 290,543.88672 149.78224,543.88672 36.113281,430.21776 36.113281,290 36.113282,149.78224 149.78224,36.113282 290,36.113281 430.21776,36.113281 543.88672,149.78224 543.88672,290 Z" id="path3267-7" fill="#39ac39"/>
 <path d="m 176.14157,321.51895 c -12.49904,0.1953 -23.72864,-9.08133 -34.76295,-9.17898 -11.13196,-0.1953 -23.43569,6.83541 -31.0523,8.39779 -7.51895,1.36709 -12.206087,1.56238 -13.963764,0.3906 l 0,25.87691 c 1.757677,1.07414 6.542464,0.97649 13.963764,-0.39059 7.51896,-1.56238 19.92034,-8.59309 31.0523,-8.39779 11.03431,0.0977 22.26391,9.37428 34.76295,9.17898 12.40139,-0.48825 26.16986,-10.54607 38.8642,-10.74136 12.30374,-0.48825 23.33804,8.59309 35.73943,8.78838 12.59669,0.0977 25.38868,-8.20249 38.8642,-8.00719 13.28023,0.19529 26.8534,9.27663 40.03598,9.17898 13.37788,-0.29295 25.97457,-9.96017 39.93834,-10.05782 13.96377,-0.0976 29.29462,9.37428 42.96544,9.66722 13.47553,0 27.34165,-8.88603 37.10652,-9.17898 9.66723,-0.39059 14.94026,5.85893 20.50624,7.12836 5.76127,1.26943 10.05782,1.36708 13.47552,0.39059 l 0,-25.87691 c -3.32006,1.07414 -7.71425,0.87884 -13.47552,-0.3906 -5.76128,-1.36708 -11.13196,-7.51895 -20.50624,-7.12835 -9.76487,0.39059 -23.82629,9.17898 -37.10652,9.17898 -13.67082,-0.29295 -29.00167,-9.56958 -42.96544,-9.56958 -13.86612,0.0977 -26.36516,9.76488 -39.93834,10.05782 -13.57317,0.0976 -27.14635,-8.98368 -40.03598,-9.17898 -13.47552,-0.39059 -26.26751,8.0072 -38.8642,7.90955 -12.01078,-0.1953 -22.75215,-8.59309 -34.56765,-8.78839 -16.02853,-0.35278 -26.67597,9.86942 -40.03598,10.74136 z" id="path4151" fill="#ffffff"/>
 <path d="m 177.21571,364.4844 c -12.49904,0.19529 -23.72864,-9.08134 -34.76295,-9.17898 -11.13196,-0.1953 -23.4357,6.83541 -31.0523,8.39779 -7.51895,1.56238 -12.206092,1.46473 -13.963769,0.39059 l 0,25.87692 c 1.757677,1.07413 6.542469,1.07413 13.963769,-0.3906 7.51895,-1.56238 19.92034,-8.59309 31.0523,-8.39779 11.03431,0.0977 22.26391,9.37428 34.76295,9.17898 12.40139,-0.58589 26.16986,-10.35076 38.8642,-10.74136 12.30374,-0.39059 23.33804,8.49544 35.73943,8.78839 12.59669,0.0976 25.38868,-8.30015 38.8642,-7.90955 13.28023,0.1953 26.8534,9.27663 40.03598,9.17898 13.37788,-0.29295 25.97457,-9.96017 39.93834,-10.05782 13.96377,0 29.29462,9.27663 42.96544,9.56958 13.47553,0 27.34165,-8.88604 37.10652,-9.17898 9.66723,-0.3906 14.94026,5.85892 20.50624,7.12835 5.76127,1.26944 10.05782,1.36709 13.47552,0.3906 l 0,-25.87692 c -3.32006,0.87884 -7.71425,0.78119 -13.47552,-0.39059 -5.76128,-1.26943 -11.13196,-7.51895 -20.50624,-7.12836 -9.76487,0.3906 -23.82629,9.17898 -37.10652,9.17898 -13.67082,-0.29294 -29.00167,-9.56957 -42.96544,-9.56957 -13.86612,0.0976 -26.36516,9.76487 -39.93834,10.05782 -13.57317,0.0976 -27.14635,-8.98369 -40.03598,-9.17899 -13.47552,-0.39059 -26.26751,8.0072 -38.8642,7.90955 -12.01079,-0.1953 -22.75215,-8.59309 -34.56765,-8.78838 -16.02852,-0.35279 -26.67597,9.86941 -40.03598,10.74136 z" id="path4149" fill="#ffffff"/>
 <path d="m 175.84863,407.05925 c -12.49904,0.19529 -23.72865,-9.08134 -34.76295,-9.17898 -11.13196,-0.1953 -23.4357,6.83541 -31.0523,8.39779 -7.51896,1.56238 -12.206094,1.46473 -13.963772,0.39059 l 0,25.87692 c 1.757678,1.07413 6.542462,1.07413 13.963772,-0.3906 7.51895,-1.56238 19.92034,-8.59309 31.0523,-8.39779 11.0343,0.0976 22.26391,9.37428 34.76295,9.17898 12.40139,-0.58589 26.16986,-10.35076 38.86419,-10.74136 12.30374,-0.39059 23.33805,8.49544 35.73944,8.78839 12.59669,0.0977 25.38867,-8.30015 38.8642,-7.90955 13.28023,0.1953 26.8534,9.27663 40.03598,9.17898 13.37788,-0.29295 25.97457,-9.96017 39.93833,-10.05782 13.96377,0 29.29463,9.27663 42.96545,9.56958 13.47552,0 27.34165,-8.88604 37.10652,-9.17898 9.66722,-0.3906 14.94026,5.85892 20.50623,7.12835 5.76128,1.26944 10.05782,1.36709 13.47553,0.3906 l 0,-25.87692 c -3.32006,0.87884 -7.71425,0.78119 -13.47553,-0.39059 -5.76127,-1.26944 -11.13195,-7.51895 -20.50623,-7.12836 -9.76487,0.3906 -23.82629,9.17898 -37.10652,9.17898 -13.67082,-0.29294 -29.00168,-9.56957 -42.96545,-9.56957 -13.86612,0.0976 -26.36515,9.76487 -39.93833,10.05782 -13.57317,0.0976 -27.14635,-8.98369 -40.03598,-9.17899 -13.47553,-0.39059 -26.26751,8.0072 -38.8642,7.90955 -12.01079,-0.1953 -22.75215,-8.59309 -34.56765,-8.78838 -16.02852,-0.35279 -26.67598,9.86941 -40.03598,10.74136 z" id="path113" fill="#ffffff"/>
 <path d="m 328.16566,110.33896 c -1.60644,-22.39555 -17.38198,-37.628669 -37.77621,-37.906032 -22.5441,1.719882 -37.51133,17.514732 -37.77622,37.906032 1.67142,21.92357 17.80988,37.62478 37.77622,37.90603 21.99241,-1.72301 37.50318,-17.87778 37.77621,-37.90603 z" id="path4137" fill="#ffffff"/>
 <path d="m 239.76172,155.9043 c -13.50078,0 -25.18469,4.80278 -34.79102,14.27929 -9.60632,9.60632 -14.27929,21.41942 -14.27929,35.43946 l 0,93.8457 c 1.48457,-0.60777 2.95805,-1.15525 4.46679,-1.7793 3.16772,-1.31022 6.4199,-2.58351 9.88086,-3.50586 1.73048,-0.46117 3.51207,-0.83457 5.36328,-1.08203 1.85122,-0.24745 3.77183,-0.36831 5.77539,-0.32422 1.47694,0.0244 2.93682,0.17709 4.38477,0.42578 0.12597,0.0216 0.24922,0.0648 0.375,0.0879 l 0,-83.77344 18.17578,0 0,89.64062 c 0.94408,0.31705 1.87409,0.71018 2.82617,0.98047 1.44032,0.40891 2.89117,0.75326 4.35743,1.00195 1.46625,0.2487 2.94787,0.40137 4.44921,0.42579 1.57459,0.0122 3.15078,-0.10861 4.73243,-0.32813 1.58164,-0.21952 3.1672,-0.53814 4.75781,-0.92187 3.18121,-0.76746 6.38281,-1.79525 9.61133,-2.81446 3.22851,-1.01921 6.48432,-2.02892 9.77539,-2.75976 1.64553,-0.36542 3.30081,-0.66146 4.96484,-0.85352 1.66403,-0.19205 3.33705,-0.28124 5.02149,-0.23242 1.6112,0.0244 3.234,0.18826 4.86523,0.45508 1.63123,0.26681 3.27134,0.63752 4.91992,1.07617 3.29717,0.87731 6.62599,2.0267 9.97656,3.16797 3.35058,1.14127 6.72286,2.27454 10.10547,3.11523 1.69131,0.42035 3.38477,0.76651 5.08008,1.00586 1.69531,0.23936 3.39124,0.37158 5.08789,0.35938 1.69665,-0.0366 3.37707,-0.22111 5.04492,-0.51367 1.66785,-0.29257 3.32407,-0.69346 4.97266,-1.16797 0.84535,-0.24332 1.68125,-0.60052 2.52344,-0.87696 l 0,-90.75976 17.52539,0 0,84.76367 c 1.56625,-0.42521 3.14086,-0.79721 4.73242,-1.05469 1.69531,-0.27426 3.40736,-0.437 5.14062,-0.44922 1.74548,0 3.51265,0.14616 5.29493,0.40039 1.78228,0.25423 3.57945,0.61756 5.38671,1.05469 2.99597,0.72465 6.02153,1.70313 9.04297,2.66992 l 0,-88.68359 c 0,-13.50078 -4.5438,-25.31386 -13.63086,-35.43945 -9.08706,-10.12558 -20.77046,-15.0581 -35.69921,-15.9668 l -100.2168,-0.9082 z" id="flowRoot3192" fill="#ffffff"/>
</svg>
