<?xml version="1.0" encoding="UTF-8" standalone="no"?>
<svg xmlns="http://www.w3.org/2000/svg" version="1.0" width="580" height="580">
 <metadata id="metadata1976"/>
 <path id="path4143" d="M 543.88672,290 C 543.88672,430.21776 430.21776,543.88672 290,543.88672 149.78224,543.88672 36.113281,430.21776 36.113281,290 36.113282,149.78224 149.78224,36.113282 290,36.113281 430.21776,36.113281 543.88672,149.78224 543.88672,290 Z" mix-blend-mode="normal" solid-color="#000000" opacity="0.8" color-interpolation-filters="linearRGB" filter-gaussianBlur-deviation="0" color="#000000" image-rendering="auto" color-rendering="auto" stroke-width="64" isolation="auto" color-interpolation="sRGB" solid-opacity="1" fill="none" stroke-linejoin="round" filter-blend-mode="normal" stroke="#ffffff" shape-rendering="auto"/>
 <path d="M 543.88672,290 C 543.88672,430.21776 430.21776,543.88672 290,543.88672 149.78224,543.88672 36.113281,430.21776 36.113281,290 36.113282,149.78224 149.78224,36.113282 290,36.113281 430.21776,36.113281 543.88672,149.78224 543.88672,290 Z" id="path3267-7" fill="#39ac39"/>
 <path d="m 186.12368,392.61046 c -11.36425,0.17757 -21.57432,-8.25684 -31.60682,-8.34562 -10.12128,-0.17757 -21.30795,6.21482 -28.23305,7.63535 -6.8363,1.24297 -11.09789,1.42053 -12.69599,0.35514 l 0,23.52754 c 1.5981,0.97662 5.94847,0.88783 12.69599,-0.35513 6.83631,-1.42053 18.11177,-7.81292 28.23305,-7.63535 10.0325,0.0888 20.24257,8.52318 31.60682,8.34562 11.27546,-0.44393 23.79389,-9.58859 35.3357,-9.76615 11.18668,-0.44393 21.21918,7.81292 32.49464,7.99048 11.45303,0.0888 23.08364,-7.45779 35.33571,-7.28022 12.07451,0.17756 24.41537,8.4344 36.4011,8.34562 12.1633,-0.26635 23.61633,-9.05588 36.31233,-9.14467 12.696,-0.0887 26.63495,8.52319 39.0646,8.78953 12.25208,0 24.85929,-8.07926 33.7376,-8.34562 8.78954,-0.35512 13.58383,5.327 18.64448,6.48118 5.2382,1.15418 9.14467,1.24296 12.25207,0.35513 l 0,-23.52754 c -3.01863,0.97662 -7.01387,0.79905 -12.25207,-0.35514 -5.23821,-1.24296 -10.12129,-6.8363 -18.64448,-6.48116 -8.87831,0.35512 -21.66309,8.34561 -33.7376,8.34561 -12.42965,-0.26635 -26.3686,-8.70075 -39.0646,-8.70075 -12.60721,0.0888 -23.97146,8.87832 -36.31233,9.14467 -12.34086,0.0887 -24.68172,-8.16805 -36.4011,-8.34562 -12.25207,-0.35513 -23.88268,7.28022 -35.33571,7.19144 -10.92032,-0.17757 -20.68647,-7.81292 -31.42924,-7.99049 -14.5733,-0.32075 -24.25405,8.97337 -36.4011,9.76615 z" id="path4151" fill="#ffffff"/>
 <path d="m 187.10029,431.67506 c -11.36424,0.17756 -21.57431,-8.25684 -31.60681,-8.34561 -10.12128,-0.17757 -21.30796,6.21482 -28.23305,7.63535 -6.8363,1.42053 -11.0979,1.33174 -12.696,0.35513 l 0,23.52754 c 1.5981,0.97661 5.94848,0.97661 12.696,-0.35513 6.8363,-1.42054 18.11177,-7.81292 28.23305,-7.63536 10.0325,0.0888 20.24257,8.52319 31.60681,8.34562 11.27547,-0.5327 23.7939,-9.41101 35.33571,-9.76615 11.18668,-0.35513 21.21918,7.72414 32.49464,7.99049 11.45303,0.0887 23.08363,-7.54657 35.33571,-7.19144 12.07451,0.17757 24.41537,8.4344 36.4011,8.34562 12.1633,-0.26635 23.61633,-9.05588 36.31233,-9.14467 12.69599,0 26.63495,8.4344 39.06459,8.70076 12.25209,0 24.8593,-8.07928 33.73761,-8.34562 8.78954,-0.35514 13.58383,5.32699 18.64448,6.48117 5.2382,1.15418 9.14466,1.24297 12.25207,0.35513 l 0,-23.52754 c -3.01863,0.79904 -7.01387,0.71026 -12.25207,-0.35513 -5.23822,-1.15418 -10.12129,-6.83631 -18.64448,-6.48118 -8.87831,0.35514 -21.66309,8.34562 -33.73761,8.34562 -12.42964,-0.26634 -26.3686,-8.70075 -39.06459,-8.70075 -12.60721,0.0887 -23.97146,8.87832 -36.31233,9.14467 -12.34086,0.0887 -24.68172,-8.16806 -36.4011,-8.34562 -12.25208,-0.35513 -23.88268,7.28022 -35.33571,7.19143 -10.92033,-0.17756 -20.68648,-7.81292 -31.42924,-7.99048 -14.57329,-0.32076 -24.25406,8.97337 -36.40111,9.76615 z" id="path4149" fill="#ffffff"/>
 <path d="m 142.44234,222.34813 c -9e-5,-79.16969 64.17964,-143.349423 143.34933,-143.349343 79.16947,2.25e-4 143.34885,64.179873 143.34877,143.349343 -2.1e-4,79.16926 -64.17952,143.34856 -143.34877,143.34879 -79.16948,8e-5 -143.34912,-64.17931 -143.34933,-143.34879 z m 25.70623,-44.59127 22.36656,-6.08815 c 0,0 2.06975,-8.93996 12.07055,-20.75834 10.00081,-11.81837 16.30974,-15.151 16.30974,-15.151 l -3.63547,-18.86681 c 0,0 -17.96899,9.4769 -30.27822,26.07567 -12.30925,16.59876 -16.83316,34.78863 -16.83316,34.78863 z m 7.96608,102.66206 c 0,0 17.10591,32.73199 48.73263,46.16776 37.70294,16.01708 70.04281,14.88597 70.04281,14.88597 0,0 -16.25055,-34.68315 -27.92244,-59.17852 -12.18309,-25.56827 -31.85541,-78.77002 -31.85541,-78.77002 0,0 -7.91303,8.10871 -21.21684,8.96218 -5.70577,0.36605 -15.27186,-3.17013 -15.27186,-3.17013 0,0 -9.30121,23.90493 -15.63801,45.75587 -6.33681,21.85095 -6.87088,25.34689 -6.87088,25.34689 z m 82.16523,-146.97648 c 0,0 2.53953,7.6628 3.47512,11.58409 2.2815,9.56235 1.15873,17.9544 1.15873,17.9544 0,0 47.43743,1.9049 70.66106,6.37142 26.51255,5.09907 68.73657,20.74724 68.73657,20.74724 0,0 -9.4062,-32.94884 -38.9849,-60.55126 -29.44389,-27.47664 -51.2247,-28.43667 -51.2247,-28.43667 0,0 -6.42748,1.82225 -24.86221,12.05946 -18.43473,10.23721 -28.95967,20.27132 -28.95967,20.27132 z" id="path4857" mix-blend-mode="normal" solid-color="#000000" color-interpolation-filters="linearRGB" color="#000000" image-rendering="auto" color-rendering="auto" fill-rule="evenodd" isolation="auto" color-interpolation="sRGB" solid-opacity="1" fill="#ffffff" shape-rendering="auto"/>
</svg>
